<svg width="51" height="50" viewBox="0 0 51 50" fill="none" xmlns="http://www.w3.org/2000/svg">
<rect width="50" height="50" rx="6" fill="white"/>
<path d="M1.31543 14.6387C1.31543 14.279 1.39372 13.951 1.55029 13.6548C1.70687 13.3586 1.94173 13.1047 2.25488 12.8931C2.56803 12.6772 2.95736 12.5122 3.42285 12.3979C3.89258 12.2795 4.43848 12.2202 5.06055 12.2202C5.52181 12.2202 6.00635 12.2541 6.51416 12.3218C7.0262 12.3895 7.55306 12.4932 8.09473 12.6328C8.07357 12.3958 8.00163 12.1779 7.87891 11.979C7.75618 11.7759 7.5848 11.6024 7.36475 11.4585C7.14893 11.3104 6.88656 11.1961 6.57764 11.1157C6.27295 11.0353 5.92594 10.9951 5.53662 10.9951C5.32503 10.9951 5.09229 11.0078 4.83838 11.0332C4.58447 11.0586 4.3221 11.0967 4.05127 11.1475C3.78044 11.1982 3.51172 11.2617 3.24512 11.3379C2.98275 11.4141 2.7373 11.505 2.50879 11.6108L1.9375 10.0684C2.22103 9.9668 2.5236 9.8737 2.84521 9.78906C3.17106 9.70443 3.50326 9.63249 3.8418 9.57324C4.18034 9.50977 4.51888 9.4611 4.85742 9.42725C5.19596 9.39339 5.52393 9.37646 5.84131 9.37646C7.24202 9.37646 8.28304 9.73405 8.96436 10.4492C9.64567 11.1644 9.98633 12.2604 9.98633 13.7373V17H8.10742V16.2954C7.91276 16.4097 7.69906 16.5176 7.46631 16.6191C7.23779 16.7207 6.98812 16.8096 6.71729 16.8857C6.44645 16.9619 6.15446 17.0212 5.84131 17.0635C5.53239 17.11 5.20443 17.1333 4.85742 17.1333C4.27344 17.1333 3.75928 17.0698 3.31494 16.9429C2.87484 16.8159 2.50667 16.6403 2.21045 16.416C1.91423 16.1917 1.68994 15.9294 1.5376 15.6289C1.38949 15.3242 1.31543 14.9941 1.31543 14.6387ZM3.2959 14.5752C3.2959 14.6979 3.32764 14.8164 3.39111 14.9307C3.45459 15.0407 3.55615 15.1401 3.6958 15.229C3.83545 15.3136 4.01318 15.3835 4.229 15.4385C4.44906 15.4893 4.71354 15.5146 5.02246 15.5146C5.35254 15.5146 5.67204 15.485 5.98096 15.4258C6.28988 15.3665 6.57764 15.2882 6.84424 15.1909C7.11084 15.0936 7.35205 14.9814 7.56787 14.8545C7.78369 14.7275 7.96354 14.5964 8.10742 14.4609V14.1309C7.81966 14.0505 7.53402 13.9827 7.25049 13.9277C6.97119 13.8727 6.70247 13.8304 6.44434 13.8008C6.19043 13.7669 5.94922 13.7437 5.7207 13.731C5.49642 13.7183 5.29964 13.7119 5.13037 13.7119C4.77913 13.7119 4.48714 13.7352 4.25439 13.7817C4.02165 13.8283 3.83333 13.8918 3.68945 13.9722C3.54557 14.0483 3.44401 14.1393 3.38477 14.2451C3.32552 14.3509 3.2959 14.4609 3.2959 14.5752ZM13.2935 10.9189H12.0112V9.50977H13.2935C13.2935 9.00195 13.3654 8.55127 13.5093 8.15771C13.6532 7.75993 13.8605 7.42562 14.1313 7.15479C14.4064 6.87972 14.7386 6.67025 15.1279 6.52637C15.5215 6.38249 15.9637 6.31055 16.4546 6.31055C16.7974 6.31055 17.1338 6.3444 17.4639 6.41211C17.7939 6.47559 18.0859 6.56868 18.3398 6.69141L17.6733 8.27197C17.5718 8.21273 17.4279 8.15771 17.2417 8.10693C17.0597 8.05615 16.8587 8.03076 16.6387 8.03076C16.207 8.03076 15.8579 8.15348 15.5913 8.39893C15.3289 8.64014 15.1893 9.01042 15.1724 9.50977H17.54V10.9189H15.1724V17H13.2935V10.9189ZM18.9873 9.50977H20.8662V10.1445C21.3656 9.861 21.8416 9.66211 22.2944 9.54785C22.7515 9.43359 23.1979 9.37646 23.6338 9.37646C24.2051 9.37646 24.734 9.4611 25.2207 9.63037C25.7074 9.79541 26.1284 10.043 26.4839 10.373C26.8394 10.7031 27.1165 11.1157 27.3154 11.6108C27.5186 12.1017 27.6201 12.6709 27.6201 13.3184V17H25.7476V13.623C25.7476 13.2126 25.6883 12.8465 25.5698 12.5249C25.4556 12.1991 25.2884 11.9261 25.0684 11.7061C24.8525 11.4818 24.5881 11.3125 24.2749 11.1982C23.966 11.0798 23.619 11.0205 23.2339 11.0205C23.0308 11.0205 22.8213 11.0417 22.6055 11.084C22.3939 11.1263 22.1844 11.1877 21.9771 11.2681C21.7739 11.3442 21.5771 11.4416 21.3867 11.5601C21.1963 11.6743 21.0228 11.8055 20.8662 11.9536V17H18.9873V9.50977ZM29.5752 14.6387C29.5752 14.279 29.6535 13.951 29.8101 13.6548C29.9666 13.3586 30.2015 13.1047 30.5146 12.8931C30.8278 12.6772 31.2171 12.5122 31.6826 12.3979C32.1523 12.2795 32.6982 12.2202 33.3203 12.2202C33.7816 12.2202 34.2661 12.2541 34.7739 12.3218C35.286 12.3895 35.8128 12.4932 36.3545 12.6328C36.3333 12.3958 36.2614 12.1779 36.1387 11.979C36.016 11.7759 35.8446 11.6024 35.6245 11.4585C35.4087 11.3104 35.1463 11.1961 34.8374 11.1157C34.5327 11.0353 34.1857 10.9951 33.7964 10.9951C33.5848 10.9951 33.3521 11.0078 33.0981 11.0332C32.8442 11.0586 32.5819 11.0967 32.311 11.1475C32.0402 11.1982 31.7715 11.2617 31.5049 11.3379C31.2425 11.4141 30.9971 11.505 30.7686 11.6108L30.1973 10.0684C30.4808 9.9668 30.7834 9.8737 31.105 9.78906C31.4308 9.70443 31.763 9.63249 32.1016 9.57324C32.4401 9.50977 32.7786 9.4611 33.1172 9.42725C33.4557 9.39339 33.7837 9.37646 34.1011 9.37646C35.5018 9.37646 36.5428 9.73405 37.2241 10.4492C37.9054 11.1644 38.2461 12.2604 38.2461 13.7373V17H36.3672V16.2954C36.1725 16.4097 35.9588 16.5176 35.7261 16.6191C35.4976 16.7207 35.2479 16.8096 34.9771 16.8857C34.7062 16.9619 34.4142 17.0212 34.1011 17.0635C33.7922 17.11 33.4642 17.1333 33.1172 17.1333C32.5332 17.1333 32.019 17.0698 31.5747 16.9429C31.1346 16.8159 30.7664 16.6403 30.4702 16.416C30.174 16.1917 29.9497 15.9294 29.7974 15.6289C29.6493 15.3242 29.5752 14.9941 29.5752 14.6387ZM31.5557 14.5752C31.5557 14.6979 31.5874 14.8164 31.6509 14.9307C31.7144 15.0407 31.8159 15.1401 31.9556 15.229C32.0952 15.3136 32.2729 15.3835 32.4888 15.4385C32.7088 15.4893 32.9733 15.5146 33.2822 15.5146C33.6123 15.5146 33.9318 15.485 34.2407 15.4258C34.5496 15.3665 34.8374 15.2882 35.104 15.1909C35.3706 15.0936 35.6118 14.9814 35.8276 14.8545C36.0435 14.7275 36.2233 14.5964 36.3672 14.4609V14.1309C36.0794 14.0505 35.7938 13.9827 35.5103 13.9277C35.231 13.8727 34.9622 13.8304 34.7041 13.8008C34.4502 13.7669 34.209 13.7437 33.9805 13.731C33.7562 13.7183 33.5594 13.7119 33.3901 13.7119C33.0389 13.7119 32.7469 13.7352 32.5142 13.7817C32.2814 13.8283 32.0931 13.8918 31.9492 13.9722C31.8053 14.0483 31.7038 14.1393 31.6445 14.2451C31.5853 14.3509 31.5557 14.4609 31.5557 14.5752ZM40.7344 9.50977H42.6133V10.1445C43.1126 9.861 43.5887 9.66211 44.0415 9.54785C44.4985 9.43359 44.945 9.37646 45.3809 9.37646C45.9521 9.37646 46.4811 9.4611 46.9678 9.63037C47.4544 9.79541 47.8755 10.043 48.231 10.373C48.5864 10.7031 48.8636 11.1157 49.0625 11.6108C49.2656 12.1017 49.3672 12.6709 49.3672 13.3184V17H47.4946V13.623C47.4946 13.2126 47.4354 12.8465 47.3169 12.5249C47.2026 12.1991 47.0355 11.9261 46.8154 11.7061C46.5996 11.4818 46.3351 11.3125 46.022 11.1982C45.7131 11.0798 45.366 11.0205 44.981 11.0205C44.7778 11.0205 44.5684 11.0417 44.3525 11.084C44.141 11.1263 43.9315 11.1877 43.7241 11.2681C43.521 11.3442 43.3242 11.4416 43.1338 11.5601C42.9434 11.6743 42.7699 11.8055 42.6133 11.9536V17H40.7344V9.50977Z" fill="#141C2E"/>
<rect y="24" width="50" height="26" rx="6" fill="#141C2E"/>
<path d="M2.35547 38.2871C2.35547 37.3691 2.52799 36.5423 2.87305 35.8066C3.2181 35.0645 3.69336 34.4329 4.29883 33.9121C4.91081 33.3848 5.63346 32.9811 6.4668 32.7012C7.30664 32.4147 8.21484 32.2715 9.19141 32.2715C9.60807 32.2715 10.0182 32.2975 10.4219 32.3496C10.832 32.4017 11.2227 32.4733 11.5938 32.5645C11.9714 32.6556 12.3229 32.7663 12.6484 32.8965C12.9805 33.0202 13.2734 33.1569 13.5273 33.3066V27.7988H16.418V44H13.5273V42.916C13.2734 43.0918 12.974 43.2578 12.6289 43.4141C12.2839 43.5703 11.9128 43.707 11.5156 43.8242C11.1185 43.9414 10.7051 44.0326 10.2754 44.0977C9.85221 44.1693 9.43229 44.2051 9.01562 44.2051C8.03906 44.2051 7.14062 44.0618 6.32031 43.7754C5.50651 43.4889 4.80664 43.0853 4.2207 42.5645C3.63477 42.0436 3.17578 41.4219 2.84375 40.6992C2.51823 39.9701 2.35547 39.166 2.35547 38.2871ZM5.39258 38.2871C5.39258 38.7493 5.48372 39.1855 5.66602 39.5957C5.85482 40.0059 6.12174 40.3672 6.4668 40.6797C6.81836 40.9857 7.23828 41.2298 7.72656 41.4121C8.22135 41.5879 8.77474 41.6758 9.38672 41.6758C9.77734 41.6758 10.168 41.64 10.5586 41.5684C10.9492 41.4902 11.3236 41.3828 11.6816 41.2461C12.0462 41.1094 12.3848 40.9434 12.6973 40.748C13.0163 40.5527 13.293 40.3346 13.5273 40.0938V36.0996C13.2344 35.8652 12.9251 35.6667 12.5996 35.5039C12.2741 35.3411 11.9421 35.2077 11.6035 35.1035C11.265 34.9993 10.9232 34.9245 10.5781 34.8789C10.2331 34.8268 9.89779 34.8008 9.57227 34.8008C8.9082 34.8008 8.31576 34.8919 7.79492 35.0742C7.2806 35.25 6.8444 35.4941 6.48633 35.8066C6.13477 36.1191 5.86458 36.487 5.67578 36.9102C5.48698 37.3333 5.39258 37.7923 5.39258 38.2871ZM19.416 38.1992C19.416 37.418 19.5755 36.6725 19.8945 35.9629C20.2135 35.2467 20.6725 34.6152 21.2715 34.0684C21.8704 33.5215 22.6029 33.0853 23.4688 32.7598C24.3411 32.4342 25.3307 32.2715 26.4375 32.2715C27.5378 32.2715 28.5273 32.4375 29.4062 32.7695C30.2917 33.0951 31.0404 33.5443 31.6523 34.1172C32.2708 34.6901 32.7428 35.3639 33.0684 36.1387C33.4004 36.9134 33.5664 37.7435 33.5664 38.6289C33.5664 38.7396 33.5632 38.86 33.5566 38.9902C33.5566 39.1139 33.5501 39.2279 33.5371 39.332H22.6387C22.7624 39.6771 22.9609 39.9928 23.2344 40.2793C23.5143 40.5658 23.8626 40.8132 24.2793 41.0215C24.696 41.2298 25.1777 41.3926 25.7246 41.5098C26.2715 41.6204 26.877 41.6758 27.541 41.6758C28.2051 41.6758 28.8659 41.6074 29.5234 41.4707C30.181 41.3275 30.8092 41.1484 31.4082 40.9336L32.3848 43.1406C32.0072 43.3164 31.623 43.4727 31.2324 43.6094C30.8483 43.7396 30.4447 43.8503 30.0215 43.9414C29.6048 44.026 29.1654 44.0911 28.7031 44.1367C28.2474 44.1823 27.7656 44.2051 27.2578 44.2051C25.9622 44.2051 24.8262 44.0488 23.8496 43.7363C22.873 43.4238 22.056 42.9974 21.3984 42.457C20.7409 41.9167 20.2461 41.2819 19.9141 40.5527C19.582 39.8236 19.416 39.0391 19.416 38.1992ZM30.5 37.0762C30.3958 36.7572 30.2331 36.4609 30.0117 36.1875C29.7969 35.9076 29.5267 35.6667 29.2012 35.4648C28.8757 35.2565 28.498 35.0938 28.0684 34.9766C27.6387 34.8594 27.1667 34.8008 26.6523 34.8008C26.1055 34.8008 25.6074 34.8626 25.1582 34.9863C24.709 35.11 24.3151 35.276 23.9766 35.4844C23.638 35.6927 23.3548 35.9336 23.127 36.207C22.9056 36.4805 22.7428 36.7702 22.6387 37.0762H30.5ZM35.0898 32.4668H38.4395L41.4375 39.4004L42.2188 41.3438L43 39.4004L45.998 32.4668H49.3477L43.8887 44H40.5488L35.0898 32.4668Z" fill="white"/>
</svg>
